<?xml version="1.0" encoding="UTF-8" standalone="no"?>
<svg width="896px" height="383px" viewBox="0 0 896 383" version="1.1" xmlns="http://www.w3.org/2000/svg" xmlns:xlink="http://www.w3.org/1999/xlink" style="background: #00A862;">
    <!-- Generator: Sketch 40.3 (33839) - http://www.bohemiancoding.com/sketch -->
    <title>Artboard</title>
    <desc>Created with Sketch.</desc>
    <defs>
        <linearGradient x1="38.2773043%" y1="14.6014636%" x2="120.63244%" y2="298.135965%" id="linearGradient-1">
            <stop stop-color="#000000" stop-opacity="0" offset="0%"></stop>
            <stop stop-color="#000000" offset="100%"></stop>
        </linearGradient>
    </defs>
    <g id="Page-1" stroke="none" stroke-width="1" fill="none" fill-rule="evenodd">
        <g id="Artboard">
            <rect id="Rectangle-2" fill="url(#linearGradient-1)" x="254" y="-18" width="105" height="171"></rect>
            <rect id="Rectangle-2-Copy" fill="#000000" opacity="0.318213619" x="28" y="88" width="44" height="151"></rect>
            <rect id="Rectangle-2-Copy-11" fill="#000000" opacity="0.318213619" x="769" y="144" width="44" height="205"></rect>
            <rect id="Rectangle-2-Copy-14" fill="#000000" opacity="0.318213619" x="826" y="144" width="44" height="205"></rect>
            <rect id="Rectangle-2-Copy-13" fill="#000000" opacity="0.318213619" x="712" y="259" width="44" height="96"></rect>
            <rect id="Rectangle-2-Copy-6" fill="#000000" opacity="0.318213619" x="28" y="259" width="44" height="95"></rect>
            <rect id="Rectangle-2-Copy-2" fill="#000000" opacity="0.318213619" x="85" y="144" width="101" height="96"></rect>
            <g id="Group-2" transform="translate(428.000000, 89.000000)" fill="#000000" opacity="0.318213619">
                <rect id="Rectangle-2-Copy-8" x="0" y="0" width="42" height="96"></rect>
            </g>
            <g id="Group-2-Copy-3" transform="translate(371.000000, 204.000000)" fill="#000000" opacity="0.318213619">
                <rect id="Rectangle-2-Copy-8" x="57" y="0" width="42" height="96"></rect>
                <rect id="Rectangle-2-Copy-10" x="0" y="54" width="42" height="96"></rect>
                <rect id="Rectangle-2-Copy-9" x="12" y="56" width="88" height="40"></rect>
            </g>
            <g id="Group-2-Copy-2" transform="translate(601.000000, 89.000000)" fill="#000000" opacity="0.318213619">
                <rect id="Rectangle-2-Copy-8" x="57" y="0" width="42" height="96"></rect>
                <rect id="Rectangle-2-Copy-10" x="0" y="54" width="42" height="96"></rect>
                <rect id="Rectangle-2-Copy-9" x="12" y="56" width="88" height="40"></rect>
            </g>
            <g id="Group-2-Copy" transform="translate(486.000000, 204.000000)" fill="#000000" opacity="0.318213619">
                <rect id="Rectangle-2-Copy-8" x="57" y="0" width="42" height="96"></rect>
                <rect id="Rectangle-2-Copy-10" x="0" y="54" width="42" height="96"></rect>
                <rect id="Rectangle-2-Copy-9" x="12" y="56" width="88" height="40"></rect>
            </g>
            <rect id="Rectangle-2-Copy-8" fill="#000000" opacity="0.318213619" x="713" y="144" width="42" height="96"></rect>
            <rect id="Rectangle-2-Copy-9" fill="#000000" opacity="0.318213619" x="668" y="200" width="88" height="40"></rect>
            <rect id="Rectangle-2-Copy-3" fill="#000000" opacity="0.318213619" x="85" y="257" width="101" height="96"></rect>
            <rect id="Rectangle-2-Copy-4" fill="#000000" opacity="0.318213619" x="770" y="32" width="101" height="96"></rect>
            <rect id="Rectangle-2-Copy-7" fill="#000000" opacity="0.318213619" x="598" y="258" width="101" height="96"></rect>
            <rect id="Rectangle-2-Copy-12" fill="#000000" opacity="0.318213619" x="484" y="145" width="101" height="96"></rect>
            <rect id="Rectangle-2-Copy-5" fill="#000000" opacity="0.318213619" x="199" y="257" width="101" height="96"></rect>
            <g id="Group" transform="translate(26.000000, 27.000000)" fill="#FFFFFF">
                <rect id="Rectangle" x="0" y="284" width="48.022267" height="48.022267" rx="5"></rect>
                <rect id="Rectangle-Copy-30" x="0" y="170" width="48.022267" height="48.022267" rx="5"></rect>
                <rect id="Rectangle-Copy-60" x="0" y="57" width="48.022267" height="48.022267" rx="5"></rect>
                <rect id="Rectangle-Copy-13" x="0" y="227" width="48.022267" height="48.022267" rx="5"></rect>
                <rect id="Rectangle-Copy-31" x="0" y="113" width="48.022267" height="48.022267" rx="5"></rect>
                <rect id="Rectangle-Copy-6" x="342" y="284" width="48.022267" height="48.022267" rx="5"></rect>
                <rect id="Rectangle-Copy-14" x="342" y="227" width="48.022267" height="48.022267" rx="5"></rect>
                <rect id="Rectangle-Copy-12" x="684" y="284" width="48.022267" height="48.022267" rx="5"></rect>
                <rect id="Rectangle-Copy-34" x="684" y="170" width="48.022267" height="48.022267" rx="5"></rect>
                <rect id="Rectangle-Copy-17" x="684" y="227" width="48.022267" height="48.022267" rx="5"></rect>
                <rect id="Rectangle-Copy-35" x="684" y="113" width="48.022267" height="48.022267" rx="5"></rect>
                <rect id="Rectangle-Copy-2" x="114" y="284" width="48.022267" height="48.022267" rx="5"></rect>
                <rect id="Rectangle-Copy-36" x="114" y="170" width="48.022267" height="48.022267" rx="5"></rect>
                <rect id="Rectangle-Copy-18" x="114" y="227" width="48.022267" height="48.022267" rx="5"></rect>
                <rect id="Rectangle-Copy-37" x="114" y="113" width="48.022267" height="48.022267" rx="5"></rect>
                <rect id="Rectangle-Copy-40" x="171" y="171" width="48.022267" height="48.022267" rx="5"></rect>
                <rect id="Rectangle-Copy-7" x="456" y="284" width="48.022267" height="48.022267" rx="5"></rect>
                <rect id="Rectangle-Copy-38" x="456" y="170" width="48.022267" height="48.022267" rx="5"></rect>
                <rect id="Rectangle-Copy-68" x="456" y="57" width="48.022267" height="48.022267" rx="5"></rect>
                <rect id="Rectangle-Copy-19" x="456" y="227" width="48.022267" height="48.022267" rx="5"></rect>
                <rect id="Rectangle-Copy-39" x="456" y="113" width="48.022267" height="48.022267" rx="5"></rect>
                <rect id="Rectangle-Copy-4" x="228" y="284" width="48.022267" height="48.022267" rx="5"></rect>
                <rect id="Rectangle-Copy-20" x="228" y="227" width="48.022267" height="48.022267" rx="5"></rect>
                <rect id="Rectangle-Copy-8" x="570" y="284" width="48.022267" height="48.022267" rx="5"></rect>
                <rect id="Rectangle-Copy-42" x="570" y="170" width="48.022267" height="48.022267" rx="5"></rect>
                <rect id="Rectangle-Copy-21" x="570" y="227" width="48.022267" height="48.022267" rx="5"></rect>
                <rect id="Rectangle-Copy-43" x="570" y="113" width="48.022267" height="48.022267" rx="5"></rect>
                <rect id="Rectangle-Copy" x="57" y="284" width="48.022267" height="48.022267" rx="5"></rect>
                <rect id="Rectangle-Copy-44" x="57" y="170" width="48.022267" height="48.022267" rx="5"></rect>
                <rect id="Rectangle-Copy-22" x="57" y="227" width="48.022267" height="48.022267" rx="5"></rect>
                <rect id="Rectangle-Copy-45" x="57" y="113" width="48.022267" height="48.022267" rx="5"></rect>
                <rect id="Rectangle-Copy-9" x="399" y="284" width="48.022267" height="48.022267" rx="5"></rect>
                <rect id="Rectangle-Copy-46" x="399" y="170" width="48.022267" height="48.022267" rx="5"></rect>
                <rect id="Rectangle-Copy-76" x="399" y="57" width="48.022267" height="48.022267" rx="5"></rect>
                <rect id="Rectangle-Copy-23" x="399" y="227" width="48.022267" height="48.022267" rx="5"></rect>
                <rect id="Rectangle-Copy-47" x="399" y="113" width="48.022267" height="48.022267" rx="5"></rect>
                <rect id="Rectangle-Copy-15" x="741" y="284" width="48.022267" height="48.022267" rx="5"></rect>
                <rect id="Rectangle-Copy-48" x="741" y="170" width="48.022267" height="48.022267" rx="5"></rect>
                <rect id="Rectangle-Copy-78" x="741" y="57" width="48.022267" height="48.022267" rx="5"></rect>
                <rect id="Rectangle-Copy-24" x="741" y="227" width="48.022267" height="48.022267" rx="5"></rect>
                <rect id="Rectangle-Copy-49" x="741" y="113" width="48.022267" height="48.022267" rx="5"></rect>
                <rect id="Rectangle-Copy-79" x="741" y="0" width="48.022267" height="48.022267" rx="5"></rect>
                <rect id="Rectangle-Copy-16" x="798" y="284" width="48.022267" height="48.022267" rx="5"></rect>
                <rect id="Rectangle-Copy-50" x="798" y="170" width="48.022267" height="48.022267" rx="5"></rect>
                <rect id="Rectangle-Copy-80" x="798" y="57" width="48.022267" height="48.022267" rx="5"></rect>
                <rect id="Rectangle-Copy-25" x="798" y="227" width="48.022267" height="48.022267" rx="5"></rect>
                <rect id="Rectangle-Copy-51" x="798" y="113" width="48.022267" height="48.022267" rx="5"></rect>
                <rect id="Rectangle-Copy-81" x="798" y="0" width="48.022267" height="48.022267" rx="5"></rect>
                <rect id="Rectangle-Copy-3" x="171" y="284" width="48.022267" height="48.022267" rx="5"></rect>
                <rect id="Rectangle-Copy-26" x="171" y="227" width="48.022267" height="48.022267" rx="5"></rect>
                <rect id="Rectangle-Copy-10" x="513" y="284" width="48.022267" height="48.022267" rx="5"></rect>
                <rect id="Rectangle-Copy-54" x="513" y="170" width="48.022267" height="48.022267" rx="5"></rect>
                <rect id="Rectangle-Copy-27" x="513" y="227" width="48.022267" height="48.022267" rx="5"></rect>
                <rect id="Rectangle-Copy-55" x="513" y="113" width="48.022267" height="48.022267" rx="5"></rect>
                <rect id="Rectangle-Copy-5" x="285" y="284" width="48.022267" height="48.022267" rx="5"></rect>
                <rect id="Rectangle-Copy-11" x="627" y="284" width="48.022267" height="48.022267" rx="5"></rect>
                <rect id="Rectangle-Copy-58" x="627" y="170" width="48.022267" height="48.022267" rx="5"></rect>
                <rect id="Rectangle-Copy-88" x="627" y="57" width="48.022267" height="48.022267" rx="5"></rect>
                <rect id="Rectangle-Copy-29" x="627" y="227" width="48.022267" height="48.022267" rx="5"></rect>
                <rect id="Rectangle-Copy-59" x="627" y="113" width="48.022267" height="48.022267" rx="5"></rect>
            </g>
            <g id="Group-3" transform="translate(306.000000, 132.000000) scale(-1, 1) translate(-306.000000, -132.000000) translate(253.000000, 51.000000)">
                <g id="Group-2" transform="translate(3.000000, 5.000000)" fill="#007242">
                    <rect id="Rectangle-2-Copy-8" x="57" y="0" width="42" height="96"></rect>
                    <rect id="Rectangle-2-Copy-10" x="0" y="54" width="42" height="96"></rect>
                    <rect id="Rectangle-2-Copy-9" x="12" y="56" width="88" height="40"></rect>
                </g>
                <rect id="Rectangle-Copy-32" fill="#FFFFFF" x="0" y="113" width="48.022267" height="48.022267" rx="5"></rect>
                <rect id="Rectangle-Copy-33" fill="#FFFFFF" x="0" y="56" width="48.022267" height="48.022267" rx="5"></rect>
                <rect id="Rectangle-Copy-76" fill="#FFFFFF" x="57" y="0" width="48.022267" height="48.022267" rx="5"></rect>
                <rect id="Rectangle-Copy-47" fill="#FFFFFF" x="57" y="56" width="48.022267" height="48.022267" rx="5"></rect>
            </g>
        </g>
    </g>
</svg>